<svg id="Layer_1" data-name="Layer 1" xmlns="http://www.w3.org/2000/svg" viewBox="0 0 1920 480"><defs><style>.cls-1{fill:#fff;}.cls-2{fill:#ebebeb;}.cls-3{fill:#fafafa;}.cls-4{fill:#f5f5f5;}.cls-5{fill:#e0e0e0;}.cls-6{fill:#263238;}.cls-7{fill:#455a64;}.cls-8{fill:#ef3139;}.cls-10,.cls-9{opacity:0.2;}.cls-10{isolation:isolate;}.cls-11{fill:#ffbe9d;}.cls-12{fill:#eb996e;}</style></defs><rect class="cls-1" width="1920" height="480"/><g id="freepik--background-complete--inject-2"><rect class="cls-2" x="614.5813" y="50.4095" width="126.0085" height="226.3685"/><rect class="cls-3" x="619.6183" y="56.9744" width="114.6384" height="213.0595"/><polygon class="cls-4" points="734.257 59.482 619.618 205.312 619.618 56.974 734.257 56.974 734.257 59.482"/><rect class="cls-2" x="619.6183" y="118.261" width="117.1253" height="2.2656"/><rect class="cls-2" x="619.6183" y="168.9995" width="117.1253" height="2.2656"/><rect class="cls-2" x="619.6183" y="219.738" width="117.1253" height="2.2656"/><rect class="cls-2" x="674.0449" y="119.3886" width="5.7957" height="156.6728"/><rect class="cls-2" x="641.6945" y="56.9744" width="2.6239" height="62.4247"/><rect class="cls-2" x="664.3293" y="56.9744" width="2.6239" height="62.4247"/><rect class="cls-2" x="686.9535" y="56.9744" width="2.6239" height="62.4247"/><rect class="cls-2" x="709.5882" y="56.9744" width="2.6239" height="62.4247"/><rect class="cls-4" x="609.2599" y="46.5633" width="5.332" height="231.6056"/><polygon class="cls-5" points="745.922 278.812 740.59 276.778 740.59 46.563 745.922 46.563 745.922 278.812"/><rect class="cls-5" x="609.2599" y="44.2345" width="136.6725" height="6.175"/><rect class="cls-5" x="605.4769" y="279.5704" width="144.0594" height="5.7535"/><polygon class="cls-2" points="740.59 276.778 749.526 279.57 605.477 279.57 614.581 276.778 740.59 276.778"/><path class="cls-2" d="M1282.6328,191.5184s-8.9149-.6428-8.0929,19.3364,2.8662,30.6223,2.8662,30.6223-.2635,4.4363-3.6987,3.5617-9.8843-5.1845-13.0771-1.96-2.1076,8.43,2.255,14.51,13.5092,19.621,14.3311,20.8539,1.1275,3.4774-1.3066,3.2561-18.8412-5.7851-21.0225,2.16,12.8136,22.7718,14.4154,24.4156,1.6965,2.6977,1.0537,3.6988-5.9959-1.391-10.7272-2.782-10.4638-2.1813-11.3385,2.508,5.7325,18.42,30.4431,32.8456l11.8865,5.9327,11.2541-7.1761c23.1827-16.86,28.325-31.1385,26.9973-35.7224s-6.9653-3.2245-11.5387-1.37-9.6419,4.7735-10.39,3.8462-.7692-1.981.6639-3.783,14.8579-18.04,11.8969-25.7328-18.7254-.5058-21.0752-.0526-2.3077-1.823-1.6228-3.1086,8.43-15.7326,12.1709-22.1816,4.4153-11.6652.79-14.6578-9.4838,2.0443-12.8136,3.2561-4.0254-3.1613-4.0254-3.1613.9589-10.79-.2213-30.7592-10.2425-18.3565-10.2425-18.3565"/><path class="cls-5" d="M1283.3283,209.4112a3.1536,3.1536,0,0,1,0,.4215l.0948,1.2223c.0738,1.0538.1792,2.6871.3162,4.7209.2739,4.0991.6322,10.0318,1.0537,17.3554.8114,14.6683,1.77,34.9321,2.74,57.3139s1.8862,42.6667,2.6133,57.3245c.3793,7.3236.6744,13.2458.8851,17.366.1054,2.0443.1792,3.6249.2318,4.7313v1.2224a4.1731,4.1731,0,0,1,0,.4215v-.4215a6.4743,6.4743,0,0,0-.0948-1.2224c-.0738-1.0537-.19-2.687-.3267-4.7208-.274-4.0886-.6217-10.0213-1.0537-17.3554-.822-14.6684-1.77-34.9321-2.75-57.3245s-1.8758-42.6456-2.6133-57.3139c-.3688-7.3131-.6745-13.2458-.8747-17.366-.1053-2.0337-.19-3.6249-.2423-4.7208v-1.2329A2.9249,2.9249,0,0,1,1283.3283,209.4112Z"/><path class="cls-5" d="M1269.4186,249.4751a4.2084,4.2084,0,0,1,.7377.6112c.4636.4215,1.0537,1.0537,1.8862,1.8124,1.57,1.56,3.6881,3.7619,5.9642,6.2383s4.2151,4.6471,5.8168,6.3225l1.77,1.9179a4.2145,4.2145,0,0,1,.6218.7271,6.4461,6.4461,0,0,1-.7482-.6007c-.4531-.4109-1.0538-1.0537-1.8758-1.823-1.56-1.57-3.6354-3.804-5.9221-6.3225l-5.8483-6.3226c-.706-.7481-1.2961-1.391-1.7809-1.9178A4.01,4.01,0,0,1,1269.4186,249.4751Z"/><path class="cls-5" d="M1287.3852,266.7567c-.0843-.0843,4.2677-4.6365,9.7156-10.1687s9.9475-9.937,10.0318-9.8421-4.215,4.6365-9.7051,10.1687S1287.48,266.8516,1287.3852,266.7567Z"/><path class="cls-5" d="M1287.3431,301.2041a4.6043,4.6043,0,0,1,.822-.5269l2.3288-1.3066c1.96-1.0538,4.6681-2.6344,7.5871-4.4258s5.5216-3.4985,7.3763-4.7525l2.2128-1.4858a3.3974,3.3974,0,0,1,.8536-.4953,5.06,5.06,0,0,1-.7482.6428c-.4952.39-1.2223.9379-2.1075,1.6017-1.823,1.3172-4.3942,3.077-7.3763,4.8789s-5.6693,3.2877-7.6714,4.32c-1.0538.5164-1.823.9168-2.4026,1.18A3.92,3.92,0,0,1,1287.3431,301.2041Z"/><path class="cls-5" d="M1267.6483,289.1175a4.266,4.266,0,0,1,.822.39c.5163.274,1.254.6849,2.1075,1.1907,1.8125,1.0538,4.2994,2.4764,7.0286,4.0992s5.1844,3.1612,6.9548,4.215c.8851.5585,1.5911,1.0011,2.1075,1.3277a3.257,3.257,0,0,1,.7271.5375,3.962,3.962,0,0,1-.822-.39c-.5163-.274-1.254-.685-2.1075-1.1908-1.802-1.0537-4.2888-2.4763-7.018-4.0991s-5.1845-3.1613-6.9548-4.215c-.8852-.548-1.5912-1.0011-2.1075-1.3278S1267.6272,289.1807,1267.6483,289.1175Z"/><path class="cls-5" d="M1263.7389,319.5606a4.6378,4.6378,0,0,1,1.0537.5058l2.7714,1.528c2.3288,1.2961,5.5217,3.1612,9.0413,5.1739s6.6913,3.9306,8.978,5.2688l2.6871,1.6544a5.1009,5.1009,0,0,1,.9589.6639,6.7339,6.7339,0,0,1-1.0538-.5058l-2.7714-1.528c-2.3182-1.3067-5.5216-3.1613-9.0412-5.1845s-6.6914-3.92-8.9675-5.2688l-2.6976-1.6544A7.1393,7.1393,0,0,1,1263.7389,319.5606Z"/><path class="cls-5" d="M1288.713,333.86a5.59,5.59,0,0,1,1.0537-.6955l2.8873-1.76c2.4447-1.4858,5.8062-3.5512,9.4838-5.9327s6.9021-4.6049,9.2415-6.2382l2.782-1.9284a5.4827,5.4827,0,0,1,1.0537-.6639,8.711,8.711,0,0,1-.9484.8009c-.6322.4953-1.549,1.2013-2.6976,2.0548-2.2972,1.6966-5.5217,3.9832-9.1888,6.3226s-7.05,4.4047-9.4838,5.8167c-1.2434.7061-2.255,1.2646-2.9716,1.6439A7.9149,7.9149,0,0,1,1288.713,333.86Z"/><polygon class="cls-5" points="1306.574 354.377 1273.686 354.377 1284.424 435.622 1295.847 435.622 1306.574 354.377"/><path class="cls-4" d="M1275.3934,364.3559s0,.1159.1792.295a2.1059,2.1059,0,0,0,.79.569,3.9832,3.9832,0,0,0,3.4774-.432c1.3277-.7271,2.4868-2.1707,4.215-2.803a9.2938,9.2938,0,0,1,6.038.1159,25.4577,25.4577,0,0,1,5.6376,2.7292,37.9415,37.9415,0,0,0,4.5733,2.4553,12.6475,12.6475,0,0,0,3.3826.98,5.9624,5.9624,0,0,0,.9589.0632h.3267a16.859,16.859,0,0,1-4.51-1.3594,43.6321,43.6321,0,0,1-4.4785-2.529,24.9505,24.9505,0,0,0-5.7219-2.8135,9.6949,9.6949,0,0,0-6.3858-.0738,8.3661,8.3661,0,0,0-2.4026,1.4858,18.2831,18.2831,0,0,1-1.8862,1.4542,3.8567,3.8567,0,0,1-3.1613.5585A3.1636,3.1636,0,0,1,1275.3934,364.3559Z"/><path class="cls-4" d="M1276.5947,379.33s.2635-.3373.78-.8746a7.0718,7.0718,0,0,1,2.6239-1.665,11.7726,11.7726,0,0,1,4.5733-.6955,49.9028,49.9028,0,0,1,5.7219.78,19.4916,19.4916,0,0,0,5.8589.2424,16.0942,16.0942,0,0,0,4.6155-1.3172,14.1329,14.1329,0,0,0,2.7714-1.6439,4.0472,4.0472,0,0,0,.8746-.79,28.8485,28.8485,0,0,1-3.8041,2.1075,16.6043,16.6043,0,0,1-4.51,1.18,20.5436,20.5436,0,0,1-5.7219-.2845,44.3876,44.3876,0,0,0-5.7957-.7481,11.7487,11.7487,0,0,0-4.7208.8325,6.9644,6.9644,0,0,0-2.6449,1.8756,4.46,4.46,0,0,0-.4953.7377A.8121.8121,0,0,0,1276.5947,379.33Z"/><path class="cls-4" d="M1302.8544,387.3383a2.6879,2.6879,0,0,0-.9062-.4742,9.7346,9.7346,0,0,0-2.7293-.5795,17.315,17.315,0,0,0-4.12.2318c-1.5279.2529-3.1612.6744-4.9,1.0538a21.1526,21.1526,0,0,1-4.9.5479,10.6,10.6,0,0,1-3.8883-.843,9.01,9.01,0,0,1-2.9506-2.1918,2.4875,2.4875,0,0,0,.5586.8535,6.8608,6.8608,0,0,0,2.2339,1.6861,10.4527,10.4527,0,0,0,4.0254.99,19.7233,19.7233,0,0,0,5.0264-.5269c1.7493-.3688,3.3826-.8008,4.879-1.0537a18.88,18.88,0,0,1,4.0148-.3372A14.8169,14.8169,0,0,1,1302.8544,387.3383Z"/><path class="cls-4" d="M1279.5031,398.603a5.2692,5.2692,0,0,1,3.1613-.3161,15.24,15.24,0,0,1,3.34,1.2434,12.4863,12.4863,0,0,0,4.3415,1.1908,12.909,12.909,0,0,0,7.861-1.823,11.1044,11.1044,0,0,0,1.96-1.5069c.4-.4215.6007-.6639.58-.6955a27.76,27.76,0,0,1-2.7293,1.8757,13.3728,13.3728,0,0,1-7.6292,1.6123c-3.1086-.1686-5.5006-2.0338-7.6608-2.2762a4.8805,4.8805,0,0,0-2.4764.2108C1279.7244,398.34,1279.482,398.582,1279.5031,398.603Z"/><path class="cls-4" d="M1281.3367,414.1987a6.3228,6.3228,0,0,0,2.74-.548c1.6544-.5479,3.6987-1.8124,6.0908-2.7608a9.9261,9.9261,0,0,1,3.4879-.7377,6.5234,6.5234,0,0,1,2.8135.6428,6.2082,6.2082,0,0,1,2.0338,1.7493,1.4856,1.4856,0,0,0-.3162-.685,4.4146,4.4146,0,0,0-1.5385-1.4015,6.6378,6.6378,0,0,0-2.9821-.8008,9.808,9.808,0,0,0-3.6882.7271c-2.4763.99-4.4574,2.2972-6.038,2.9189S1281.3261,414.1143,1281.3367,414.1987Z"/><path class="cls-4" d="M1282.9489,421.459a7.8713,7.8713,0,0,0,2.1076.6745,37.294,37.294,0,0,0,5.2055.8746,38.0489,38.0489,0,0,0,5.2688.158,7.24,7.24,0,0,0,2.1708-.2634c0-.1581-3.33,0-7.3764-.4321S1282.9911,421.301,1282.9489,421.459Z"/><rect class="cls-5" x="1186.3719" y="59.7142" width="101.5402" height="66.7662"/><rect class="cls-3" x="1189.902" y="62.4434" width="94.4273" height="61.0443"/><rect class="cls-5" x="1221.715" y="84.6988" width="30.8013" height="16.7969"/></g><g id="freepik--Floor--inject-2"><path class="cls-6" d="M1316.4479,436.6964c0,.158-162.4264.274-362.7354.274s-362.7775-.1159-362.7775-.274,162.3948-.274,362.7775-.274S1316.4479,436.5489,1316.4479,436.6964Z"/></g><g id="freepik--Device--inject-2"><path class="cls-2" d="M864.2273,11.1886h217.4432V218.2838a17.0921,17.0921,0,0,1-17.092,17.092H864.2273V11.1886Z"/><path class="cls-7" d="M1063.7144,77.9126c0,.4531-39.2947.8219-87.7676.8219s-87.7886-.3688-87.7886-.8219,39.2947-.8219,87.7886-.8219S1063.7144,77.46,1063.7144,77.9126Z"/><path class="cls-7" d="M976.98,93.1184c0,.4531-19.41.8219-43.3621.8219s-43.3728-.3688-43.3728-.8219,19.4208-.822,43.3728-.822S976.98,92.6442,976.98,93.1184Z"/><path class="cls-7" d="M1011.6482,91.6958c0,.4531-5.1424.8219-11.486.8219s-11.4859-.3688-11.4859-.8219,5.1423-.8219,11.4859-.8219S1011.6482,91.2427,1011.6482,91.6958Z"/><path class="cls-7" d="M1068.4036,90.7579c0,.4532-10.1793.822-22.74.822s-22.74-.3688-22.74-.822,10.1793-.8219,22.74-.8219S1068.4036,90.3048,1068.4036,90.7579Z"/><path class="cls-7" d="M969.74,107.6286c0,.4637-18.2616.8325-40.791.8325s-40.791-.3688-40.791-.8325,18.2616-.8219,40.791-.8219S969.74,107.1755,969.74,107.6286Z"/><path class="cls-7" d="M1068.4036,107.2177c0,.4531-19.9371.8219-44.5318.8219s-44.5424-.3688-44.5424-.8219,19.9371-.822,44.5424-.822S1068.4036,106.754,1068.4036,107.2177Z"/><path class="cls-7" d="M1068.4036,121.8438c0,.4531-8.8727.8219-19.8317.8219s-19.8318-.3688-19.8318-.8219,8.8832-.8324,19.8318-.8324S1068.4036,121.38,1068.4036,121.8438Z"/><path class="cls-8" d="M986.358,61.632c0,.4532-21.5178.822-48.0514.822s-48.062-.3688-48.062-.822,21.5178-.8219,48.0619-.8219S986.358,61.1789,986.358,61.632Z"/><rect class="cls-6" x="683.6868" y="136.765" width="451.7148" height="298.709" rx="15.3533"/><path class="cls-6" d="M665.4252,413.3767h489.3866v7.3763a18.7568,18.7568,0,0,1-18.7569,18.7569H684.1821a18.7569,18.7569,0,0,1-18.7569-18.7569v-7.3763Z"/><rect class="cls-7" x="696.4373" y="148.6304" width="426.1927" height="252.2593"/><path class="cls-7" d="M865.6394,413.3767h7.4711l20.6431-.0843,69.0529-.1475h.5058l-.2529.4426-2.74,4.7-2.8978,4.9632-.0843.1475h-.1686l-85.46-.1581h-.0737v-.0632l-4.4785-7.2815-1.1275-1.844-.3583-.6112s.158.2213.4215.6428l1.2013,1.844c1.0537,1.6334,2.5712,4.0149,4.5627,7.1024l-.1159-.0633,85.46-.158-.2529.1475,2.8978-4.9632,2.74-4.7.2529.4426-68.7683-.1476-20.78-.1265h-7.134Z"/><path class="cls-7" d="M1135.3911,413.3767c0,.1581-101.1609.274-225.8416.274s-225.8627-.1159-225.8627-.274,101.0976-.274,225.8627-.274S1135.3911,413.2292,1135.3911,413.3767Z"/><path class="cls-6" d="M1020.0782,98.25h0a12.6452,12.6452,0,0,1,12.6452,12.6451v25.8908H994.9988v-23.91A14.6156,14.6156,0,0,1,1009.6039,98.25h10.4743Z"/><path class="cls-6" d="M1020.0782,98.25c0,.158-35.5959.2423-79.5061.2107s-79.5061-.2-79.5061-.3477,35.5854-.2424,79.5061-.2108S1020.0782,98.1026,1020.0782,98.25Z"/><path class="cls-3" d="M1019.7832,98.2185l-15.7432-.1053-22.856.137H813.2781a25.8171,25.8171,0,0,0-25.8171,25.817h0V401.49h217.4536V112.4021C1005.5575,98.25,1019.7832,98.2185,1019.7832,98.2185Z"/><path class="cls-6" d="M1019.7832,98.2185l-131.1192.2846H814.9114c-1.37,0-2.7187,0-4.0675.1159a26.8592,26.8592,0,0,0-3.9727.7271,25.3533,25.3533,0,0,0-17.387,15.5956c-.2107.6428-.5058,1.254-.6533,1.9073l-.4953,1.96a27.2786,27.2786,0,0,0-.4742,4.0148c-.1159,5.4269,0,10.9169,0,16.3754l.1792,262.2279-.5269-.5269,217.4537.1475-.3794.3794.1054-155.9563.1264-77.9782.0738-38.989V113.8774a15.6986,15.6986,0,0,1,.0948-2.4342,13.29,13.29,0,0,1,.39-2.4026,12.8876,12.8876,0,0,1,5.2688-7.9348,15.27,15.27,0,0,1,4.3731-2.1075A18.53,18.53,0,0,1,1019.7832,98.2185Zm0,0a18.4019,18.4019,0,0,0-4.7841.8536,15.249,15.249,0,0,0-4.3626,2.1075,12.7821,12.7821,0,0,0-5.2055,7.9243,13.0058,13.0058,0,0,0-.3794,2.392,17.03,17.03,0,0,0-.0842,2.4342v14.6156l.0842,38.9891.1265,77.9781.0948,155.9563v.4005h-.39l-217.4536.137h-.5164V401.48l.1686-262.2279c0-5.469,0-10.9169.0738-16.407a28.5391,28.5391,0,0,1,.4847-4.12l.5269-2.0022c.1475-.6744.4531-1.3066.6639-1.96a26.0065,26.0065,0,0,1,17.8507-15.975,28.0369,28.0369,0,0,1,4.078-.7377c1.38-.0737,2.7609-.1475,4.12-.1159h73.7526Z"/><path class="cls-8" d="M820.2224,148.1667h37.9353l.0632,12.7083h-1.823q-.8851-6.8178-5.1-9.2309a15.8065,15.8065,0,0,0-7.0813-1.4436v33.1934c0,2.3288.4,3.8673,1.2118,4.626s2.4975,1.138,5.0686,1.138V190.76H828.0412v-1.6018c2.4553,0,4.0992-.39,4.9-1.1591s1.2224-2.2972,1.2224-4.6049V150.2005a16.1963,16.1963,0,0,0-7.0813,1.4436c-3.0137,1.6544-4.7208,4.7209-5.1107,9.2309h-1.8125Z"/><path class="cls-8" d="M975.0722,151.0751c0,.4531-20.9276.8219-46.7447.8219s-46.7448-.3688-46.7448-.8219,20.9277-.8219,46.7448-.8219S975.0722,150.58,975.0722,151.0751Z"/><path class="cls-7" d="M919.6023,165.9752c0,.4531-8.0928.822-18.0719.822s-18.072-.3689-18.072-.822,8.0929-.8324,18.072-.8324S919.6023,165.5116,919.6023,165.9752Z"/><path class="cls-7" d="M874.0378,211.54c0,.4531-15.3638.8219-34.3209.8219s-34.3315-.3688-34.3315-.8219,15.3638-.822,34.3315-.822S874.0378,211.1393,874.0378,211.54Z"/><path class="cls-8" d="M951.7841,211.54c0,.4531-15.3743.8219-34.3209.8219s-34.3315-.3688-34.3315-.8219,15.3638-.822,34.3315-.822S951.7841,211.1393,951.7841,211.54Z"/><path class="cls-7" d="M874.0378,223.7107c0,.4531-15.3638.8219-34.3209.8219s-34.3315-.3688-34.3315-.8219,15.3638-.822,34.3315-.822S874.0378,223.2576,874.0378,223.7107Z"/><path class="cls-8" d="M874.0378,235.8816c0,.4531-15.3638.8219-34.3209.8219s-34.3315-.3688-34.3315-.8219,15.3638-.8325,34.3315-.8325S874.0378,235.3758,874.0378,235.8816Z"/><path class="cls-7" d="M919.6023,190.76c0,.4532-8.0928.822-18.0719.822s-18.072-.3688-18.072-.822,8.0929-.8219,18.072-.8219S919.6023,190.3065,919.6023,190.76Z"/><path class="cls-7" d="M982.301,211.54c0,.4531-5.3952.8219-12.0445.8219s-12.055-.3688-12.055-.8219,5.3953-.822,12.055-.822S982.301,211.1393,982.301,211.54Z"/><path class="cls-7" d="M988.75,165.9752c0,.4531-13.8885.822-31.0121.822s-31.0121-.3689-31.0121-.822,13.878-.8324,31.0121-.8324S988.75,165.5116,988.75,165.9752Z"/><path class="cls-7" d="M985.947,177.8406c0,.4531-22.94.8219-51.2443.8219s-51.2443-.3688-51.2443-.8219,22.94-.822,51.2443-.822S985.947,177.4191,985.947,177.8406Z"/><path class="cls-7" d="M982.301,223.7107c0,.4531-22.2027.8219-49.5267.8219s-49.59-.3688-49.59-.8219,22.1922-.822,49.59-.822S982.301,223.2576,982.301,223.7107Z"/><path class="cls-8" d="M982.301,258.9378c0,.4531-20.8328.822-46.5235.822s-46.5339-.3689-46.5339-.822,20.8328-.8219,46.5339-.8219S982.301,258.4847,982.301,258.9378Z"/><path class="cls-7" d="M982.301,270.7821c0,.4531-20.8328.8219-46.5235.8219s-46.5339-.3688-46.5339-.8219,20.8328-.8219,46.5339-.8219S982.301,270.329,982.301,270.7821Z"/><path class="cls-7" d="M982.301,282.6263c0,.4531-20.8328.822-46.5235.822s-46.5339-.3689-46.5339-.822,20.8328-.8219,46.5339-.8219S982.301,282.1732,982.301,282.6263Z"/><path class="cls-7" d="M982.301,294.4706c0,.4531-20.8328.8219-46.5235.8219s-46.5339-.3688-46.5339-.8219,20.8328-.822,46.5339-.822S982.301,294.0175,982.301,294.4706Z"/><path class="cls-7" d="M942.8166,306.3148c0,.2213-3.0032.4321-7.8505.58s-11.5913.2424-18.9676.2424-14.0993-.0949-18.9677-.2424-7.84-.3583-7.84-.58,2.9927-.432,7.84-.5795,11.5914-.2424,18.9677-.2424,14.0887.0948,18.9676.2424S942.8166,306.083,942.8166,306.3148Z"/><path class="cls-7" d="M965.4409,236.5139c0,.4531-17.9139.8219-40.0429.8219s-40.0428-.3688-40.0428-.8219,17.9139-.822,40.0428-.822S965.4409,236.0607,965.4409,236.5139Z"/><polygon class="cls-5" points="872.415 260.276 877.357 351.7 787.967 362.891 787.893 259.496 872.415 260.276"/><rect class="cls-4" x="768.5223" y="242.1718" width="96.9879" height="121.3087" transform="translate(508.9203 1117.8698) rotate(-89.63)"/><rect class="cls-8" x="774.5493" y="246.4395" width="84.7749" height="112.7838" transform="translate(508.8361 1117.7955) rotate(-89.63)"/><g class="cls-9"><polygon points="760.263 344.84 800.001 292.405 824.185 325.525 840.855 308.011 873.058 345.567 760.263 344.84"/></g><g class="cls-9"><path d="M834.7959,286.167a8.8832,8.8832,0,1,1-8.83-8.936l.01,0a8.8726,8.8726,0,0,1,8.82,8.9249Z"/></g><path class="cls-6" d="M889.0328,374.5773a1.8757,1.8757,0,1,1-1.8757-1.8757h0a1.8652,1.8652,0,0,1,1.8757,1.8546C889.0329,374.5632,889.0329,374.57,889.0328,374.5773Z"/><path class="cls-6" d="M900.171,374.5773a1.8757,1.8757,0,1,1-1.8757-1.8757h0A1.8757,1.8757,0,0,1,900.171,374.5773Z"/><path class="cls-6" d="M911.2987,374.5773a1.8757,1.8757,0,1,1-1.8757-1.8757h0A1.8757,1.8757,0,0,1,911.2987,374.5773Z"/><path class="cls-8" d="M952.311,330.9939c0,.4531-15.3743.8219-34.3315.8219s-34.3314-.3688-34.3314-.8219,15.3743-.822,34.3314-.822S952.311,330.5407,952.311,330.9939Z"/><path class="cls-7" d="M982.8279,343.1648c0,.4531-22.2027.8219-49.59.8219s-49.59-.3688-49.59-.8219,22.2027-.8219,49.59-.8219S982.8279,342.7116,982.8279,343.1648Z"/></g><g id="freepik--Box--inject-2"><rect class="cls-4" x="1210.5773" y="357.8467" width="58.4233" height="73.0713" transform="translate(833.029 1630.1657) rotate(-89.4271)"/><rect class="cls-8" x="1211.7847" y="358.9338" width="51.0652" height="67.9358" transform="translate(836.4335 1627.656) rotate(-89.63)"/><polygon class="cls-10" points="1203.169 418.192 1227.1 386.611 1241.673 406.559 1251.716 396.011 1271.105 418.635 1203.169 418.192"/><g class="cls-9"><path d="M1248.07,382.902a5.3531,5.3531,0,1,1-5.3319-5.3742h.01A5.3532,5.3532,0,0,1,1248.07,382.902Z"/></g><rect class="cls-4" x="1197.4428" y="350.2587" width="58.4204" height="73.0676" transform="translate(831.9472 1610.9221) rotate(-89.63)"/><rect class="cls-8" x="1201.0833" y="352.8245" width="51.0652" height="67.9358" transform="translate(831.9103 1610.8849) rotate(-89.63)"/><polygon class="cls-10" points="1192.452 412.091 1216.383 380.51 1230.956 400.458 1240.999 389.91 1260.388 412.534 1192.452 412.091"/><g class="cls-9"><path d="M1237.3528,376.7586a5.3531,5.3531,0,1,1-5.3208-5.3853l.052.0006A5.3531,5.3531,0,0,1,1237.3528,376.7586Z"/></g><rect class="cls-4" x="1187.908" y="345.2311" width="58.4204" height="73.0676" transform="translate(827.5014 1596.3924) rotate(-89.63)"/><rect class="cls-8" x="1191.5379" y="347.7864" width="51.0652" height="67.9358" transform="translate(827.4646 1596.3341) rotate(-89.63)"/><polygon class="cls-10" points="1182.916 407.054 1206.846 375.462 1221.42 395.421 1231.452 384.862 1250.851 407.486 1182.916 407.054"/><g class="cls-9"><path d="M1227.8057,371.7111a5.353,5.353,0,1,1-5.3207-5.3853l.0519.0006A5.3531,5.3531,0,0,1,1227.8057,371.7111Z"/></g><rect class="cls-4" x="1179.4873" y="352.9508" width="58.4233" height="73.0713" transform="translate(807.1456 1594.2303) rotate(-89.4271)"/><rect class="cls-7" x="1180.8256" y="354.065" width="51.0652" height="67.9358" transform="translate(810.5431 1591.8601) rotate(-89.63)"/><polygon class="cls-10" points="1172.199 413.335 1196.13 381.743 1210.703 401.691 1220.735 391.142 1240.135 413.767 1172.199 413.335"/><g class="cls-9"><path d="M1217.1311,377.9915a5.353,5.353,0,1,1-5.3207-5.3853l.0519.0006A5.3319,5.3319,0,0,1,1217.1311,377.9915Z"/></g><rect class="cls-6" x="1243.0958" y="380.2992" width="42.182" height="56.4077"/><path class="cls-8" d="M1162.3357,380.2992v56.3972h84.3007V380.2992Zm51.16,13.3406h-17.9139a3.8778,3.8778,0,0,1,0-7.7556h17.9139a3.8778,3.8778,0,1,1,.0155,7.7556Z"/></g><g id="freepik--Character--inject-2"><path class="cls-7" d="M1107.5929,430.8059l-78.4523-4.8052c-.4953-1.1275-.8219-1.7808-.8219-1.7808l-21.2649.432-6.9232-.432-.274.569-71.3816,1.4226c-14.2363,0-29.2,8.683-29.2,19.7791-.1792,10.5375,4.9421,22.0235,17.6926,21.76l97.2514-.3267,97.2619.3267c12.7505.2634,16.1225-7.3763,16.1436-16.5546C1129.1106,434.21,1118.4677,430.9429,1107.5929,430.8059Z"/><path class="cls-6" d="M925.8933,467.7612h1.8441l5.2688-.0527,19.5788-.0843,65.333-.0842-.274.2845c-.137-2.1076-.274-4.4153-.4215-6.7125-.295-4.7-.5795-9.3363-.8535-13.6988l.2424.2529-60.17-6.8073-17.83-2.0338-4.8051-.58-1.2434-.158a2.248,2.248,0,0,1-.411-.0738h.4215l1.2434.1159,4.8157.4742,17.8507,1.8757,60.18,6.5122h.2213v.2213c.2845,4.4047.569,9.0307.8641,13.6989.1475,2.2972.2845,4.5838.4215,6.7124v.2951h-.2845l-65.3331-.0949-19.5788-.0843h-6.6492Z"/><path class="cls-6" d="M945.9463,439.8577c-.0632.0737-1.0537-.7166-2.75-1.76a30.1256,30.1256,0,0,0-7.1445-3.1613,29.7936,29.7936,0,0,0-7.724-1.138,22.1119,22.1119,0,0,1-3.2561,0,2.8972,2.8972,0,0,1,.8641-.2,18.3762,18.3762,0,0,1,2.392-.2107,25.8061,25.8061,0,0,1,15.0793,4.3309,18.2976,18.2976,0,0,1,1.9178,1.4542C945.7461,439.6048,945.9674,439.805,945.9463,439.8577Z"/><path class="cls-6" d="M1101.5022,435.6848c0,.1475-15.4375,3.8884-34.5527,8.3563s-34.6582,7.9664-34.69,7.8189,15.4376-3.8884,34.5633-8.3563S1101.4706,435.59,1101.5022,435.6848Z"/><path class="cls-6" d="M1088.425,434.1674a31.8682,31.8682,0,0,0-6.07,2.9084,30.1155,30.1155,0,0,0-4.9211,4.5733,5.154,5.154,0,0,1,1.0538-1.7177,16.133,16.133,0,0,1,7.977-5.3952A5.6054,5.6054,0,0,1,1088.425,434.1674Z"/><path class="cls-11" d="M1059.2149,345.0931l24.8581,43.2674a18.3668,18.3668,0,0,1,.4953,17.3765h0a18.3883,18.3883,0,0,1-16.955,10.1477l-38.1671-1.0538-1.0011-13.878,33.6043-6.4595-22.6558-39.2209Z"/><path class="cls-11" d="M966.5894,419.13l35.09,9.2942.7693-10.5376-32.34-18.778,23.6253-43.8363-19.8212-10.1794-24.8582,43.2674h0a20.2533,20.2533,0,0,0,11.6967,28.9046Z"/><path class="cls-8" d="M1048.6667,372.87l23.9836-12.6451a122.1694,122.1694,0,0,0-10.2742-17.1341c-7.4289-10.2741-18.9676-17.45-32.0342-20.19h0l-27.5874.3267a36.669,36.669,0,0,0-9.8421,2.2655v-.1054C977.9385,328.6861,961.3,361.3421,961.3,361.3421l21.8971,11.4965.4847,3.4353a23.1824,23.1824,0,0,0,5.69,12.2341l-6.3225,41.8026,70.7493,1.4648L1044.81,401.87Z"/><path class="cls-6" d="M989.9934,388.74a4.9662,4.9662,0,0,1-1.0537-.8009,15.1777,15.1777,0,0,1-2.4131-2.6976,17.4821,17.4821,0,0,1-2.9611-11.3912,37.75,37.75,0,0,1,1.6228-6.3225c.6323-1.9073,1.2856-3.5933,1.8441-5.0054s1.0537-2.5395,1.391-3.3088a5.2684,5.2684,0,0,1,.6111-1.17,6.91,6.91,0,0,1-.411,1.2539c-.3266.8957-.7376,2.0233-1.2329,3.3615s-1.117,3.1613-1.7176,5.0264a38.5566,38.5566,0,0,0-1.56,6.2594,18.0089,18.0089,0,0,0,.6007,6.3225,17.0271,17.0271,0,0,0,2.1075,4.7735A29.2029,29.2029,0,0,0,989.9934,388.74Z"/><polygon class="cls-6" points="979.372 440.406 975.367 393.777 1061.66 393.777 1055.938 440.985 979.372 440.406"/><path class="cls-3" d="M1024.0088,418.6455a5.5006,5.5006,0,1,1-5.5112-5.49h.0211A5.49,5.49,0,0,1,1024.0088,418.6455Z"/><polygon class="cls-11" points="1017.001 449.51 1031.659 451.554 1031.659 467.487 1018.181 467.139 1017.001 449.51"/><path class="cls-8" d="M1031.67,451.5544h6.586a7.2708,7.2708,0,0,1,3.646.98l3.4669,2.0232a54.1865,54.1865,0,0,0,6.07,2.8873c4.0043,1.2856,10.7378,3.0243,12.16,4.12,4.0464,3.1613,2.8136,6.8178.59,7.1972-1.9495.3477-32.5295-1.2646-32.5295-1.2646Z"/><path class="cls-6" d="M1042.4706,466.149a10.5382,10.5382,0,0,1-.706-4.1413,10.2533,10.2533,0,0,1,.4636-4.215,36.8688,36.8688,0,0,1,.0843,4.1518A35.6176,35.6176,0,0,1,1042.4706,466.149Z"/><path class="cls-6" d="M1045.6,466.0752a26.4812,26.4812,0,0,1,.0632-7.5976,13.9189,13.9189,0,0,1,.2424,3.8041A13.6994,13.6994,0,0,1,1045.6,466.0752Z"/><path class="cls-6" d="M1049.2884,466.7075a28.2289,28.2289,0,0,1-.6111-7.8295,14.2977,14.2977,0,0,1,.58,3.8884A14.4656,14.4656,0,0,1,1049.2884,466.7075Z"/><path class="cls-6" d="M1039.6255,461.9339a4.15,4.15,0,0,1-1.3488-.4215,12.5162,12.5162,0,0,1-3.2983-2.0337c-.3056-.2635-.6217-.5585-.9379-.8852a3.7212,3.7212,0,0,1-.843-1.18,1.665,1.665,0,0,1,.19-1.6438,1.2326,1.2326,0,0,1,.8114-.4426,2.1075,2.1075,0,0,1,.8957.0948,6.5649,6.5649,0,0,1,1.38,11.6651,4.2161,4.2161,0,0,1-1.5174.685,1.814,1.814,0,0,1-.8536,0,1.1171,1.1171,0,0,1-.6638-.59,1.6443,1.6443,0,0,1,.19-1.5175,4.7718,4.7718,0,0,1,.843-1.0537,10.1791,10.1791,0,0,1,3.2456-2.1075,3.9935,3.9935,0,0,1,1.3594-.3794s-.4637.19-1.2751.58a10.8543,10.8543,0,0,0-3.0559,2.2023,4.13,4.13,0,0,0-.7481.9484,1.2852,1.2852,0,0,0-.1581,1.1064.8746.8746,0,0,0,1.0538.3583,3.8359,3.8359,0,0,0,1.3172-.6217,6.0908,6.0908,0,0,0-1.254-10.7694,1.0537,1.0537,0,0,0-1.18.1686,1.1907,1.1907,0,0,0-.1265,1.17,6.323,6.323,0,0,0,1.6123,1.939A17.1967,17.1967,0,0,0,1039.6255,461.9339Z"/><path class="cls-6" d="M1064.1886,468.7517a3.3709,3.3709,0,0,0,.8008-1.0537,3.72,3.72,0,0,0-.432-3.3193,7.3759,7.3759,0,0,0-4.0675-3.0665c-1.8651-.6744-4.078-.99-6.3225-1.6965a44.2581,44.2581,0,0,1-10.8854-4.9527,32.9866,32.9866,0,0,1-2.961-2.1075,5.629,5.629,0,0,1-1.0011-.8852,6.9937,6.9937,0,0,1,1.1275.7061c.7061.4742,1.7282,1.1591,3.0454,1.9389a49.0718,49.0718,0,0,0,10.8326,4.7629c2.2024.685,4.4047,1.0538,6.3226,1.7387a7.6609,7.6609,0,0,1,4.215,3.3615,3.8988,3.8988,0,0,1,.274,3.6039,2.2875,2.2875,0,0,1-.6744.7482C1064.3361,468.72,1064.1991,468.7728,1064.1886,468.7517Z"/><path class="cls-4" d="M1054.21,334.3553a.684.684,0,0,1,0,.2319v.6533c-.0527.6112-.137,1.4647-.2318,2.55-.2318,2.2656-.5585,5.5006-.9589,9.5681v.2424l-.2213-.1159-12.7927-6.7335.3056-.0843-6.9126,11.6756-.1476.2424-.2318-.1686-11.5913-8.9254h.3372l-5.0686,3.9727-6.9127,5.4058-.2529.2-.1475-.2845-6.586-12.1709.3267.1054-13.9518,6.2172-.2634.1159v-.274l-2.1075-12.4133.2107.1264-8.03,3.0981-2.1076.78-.5479.2-.19.0527s.0527,0,.1686-.0949l.5375-.2318,2.1075-.8641,7.9348-3.1613.1791-.0632v.19c.6217,3.4563,1.3594,7.6187,2.2129,12.3922l-.295-.1581,13.92-6.3225.2213-.0949.1159.2c2.1075,3.8567,4.2993,7.9242,6.6071,12.1709l-.411-.0843,6.9126-5.4164,5.0686-3.9726.1686-.1265.1686.1265,11.5914,8.9464-.3794.0737,6.9654-11.5913.1053-.1792.19.0949,12.6451,6.8073-.2424.1264,1.117-9.547c.137-1.0538.2424-1.9284.3161-2.54a4.37,4.37,0,0,1,.0949-.6533A1.8584,1.8584,0,0,1,1054.21,334.3553Z"/><path class="cls-4" d="M1064.452,346.0942a1.3428,1.3428,0,0,1-.0527.3056c-.0632.2319-.137.5269-.2212.8957-.2213.8114-.5164,1.9706-.9063,3.4458-.8113,3.0348-1.9916,7.3763-3.4457,12.8243l-.0633.2107-.19-.0948-14.8686-7.1235.295-.0842c-3.804,5.4163-8.0191,11.4333-12.5186,17.8612l-.19.2634-.2213-.2318-11.9918-12.2025-2.529-2.5607h.3372L1001.68,369.7722l-.2318.1475-.137-.2318L992.5646,354.24l.274.1054-16.6705,5.743-.158.0527-.0527-.1581c-1.5806-4.5733-2.8346-8.2088-3.6987-10.7273-.411-1.2223-.7376-2.1812-.9589-2.8556-.1054-.3056-.1792-.548-.2424-.7377a.8223.8223,0,0,1-.0632-.2529.93.93,0,0,1,.1054.2424l.2845.7166c.2423.6744.59,1.6122,1.0537,2.824.8957,2.508,2.2024,6.1224,3.8462,10.6851l-.2107-.1053,16.6072-5.8274.1792-.0632.0948.1686,8.7989,15.4059-.3688-.0948,16.2068-10.19.1791-.1159.1581.158q1.254,1.2856,2.529,2.5606l12.0234,12.2131h-.411l12.5819-17.8191.1054-.158.1791.0843,14.8159,7.2287-.2424.1159,3.6039-12.7821.99-3.4247c.1159-.3583.2-.6533.274-.8746A1.1423,1.1423,0,0,1,1064.452,346.0942Z"/><path class="cls-6" d="M1053.7985,272.584a15.49,15.49,0,0,1-11.781-3.72c3.8357,1.939,8.9464-.7271,10.3058-4.8051s.2423-11.6756-3.1086-14.3733a13.33,13.33,0,0,0-11.5914-2.4868c-3.9516,1.0537-8.135,7.0707-9.4311,10.9485l.0737.1159c-.6006-.2423-1.2223-.4636-1.8335-.6744a31.6137,31.6137,0,0,0-13.6462-1.6544,22.2127,22.2127,0,0,0-12.4659,5.49l26.7971,43.0671c4.8683-.4215,9.1782-3.7092,11.7283-7.8716s3.53-9.1255,3.7724-14.0045c.0633-1.2329.0527-2.4657,0-3.6987l8.6093,1.3805a19.2727,19.2727,0,0,0-5.7219-5.1213A7.2076,7.2076,0,0,0,1053.7985,272.584Z"/><path class="cls-11" d="M1019.9518,339.4239a13.4777,13.4777,0,0,0,13.1931-13.32l.6217-53.5836h0a4.215,4.215,0,0,0-3.8146-4.32l-22.6348-5.7219c-7.26-.7587-12.0655,8.1561-12.5292,15.427-.5058,8.0823-.8113,17.9666.1476,24.0046,1.9283,12.1182,11.2225,13.6989,11.2225,13.6989v10.4322a13.4776,13.4776,0,0,0,13.5377,13.4172q.1122,0,.2244-.0029Z"/><path class="cls-6" d="M999.4878,285.756a1.56,1.56,0,0,0,1.5069,1.57,1.4858,1.4858,0,0,0,1.5991-1.3631l.0026-.0384a1.5491,1.5491,0,0,0-1.4964-1.57,1.4963,1.4963,0,0,0-1.61,1.373Z"/><path class="cls-6" d="M996.8956,283.0478c.19.2108,1.37-.6638,3.0453-.6638s2.8979.8429,3.077.6427-.1054-.4636-.6428-.8535a4.362,4.362,0,0,0-2.4657-.7587,4.0782,4.0782,0,0,0-2.4237.79A1.4685,1.4685,0,0,0,996.8956,283.0478Z"/><path class="cls-6" d="M1015.41,285.756a1.549,1.549,0,0,0,1.5069,1.57,1.4963,1.4963,0,0,0,1.61-1.373l.002-.0285a1.56,1.56,0,0,0-1.5068-1.57,1.4858,1.4858,0,0,0-1.6088,1.3517Z"/><path class="cls-6" d="M1013.3869,283.364c.19.2,1.37-.6639,3.0454-.6639s2.8978.843,3.0769.6323-.1053-.4531-.6427-.843a4.278,4.278,0,0,0-2.4658-.7587,4.0782,4.0782,0,0,0-2.4237.78C1013.4606,282.9108,1013.292,283.2691,1013.3869,283.364Z"/><path class="cls-6" d="M1007.3067,295.7773a11.2324,11.2324,0,0,0-2.7187-.4953c-.4215,0-.8219-.1265-.8957-.4215a2.1079,2.1079,0,0,1,.2845-1.2645l1.2645-3.2561c1.7493-4.6261,3.0243-8.43,2.8347-8.5039s-1.76,3.6249-3.52,8.2615l-1.2118,3.2666a2.5394,2.5394,0,0,0-.2213,1.6755,1.0539,1.0539,0,0,0,.706.6323,2.7592,2.7592,0,0,0,.7271.0948A10.8652,10.8652,0,0,0,1007.3067,295.7773Z"/><path class="cls-12" d="M1006.1581,315.5774a30.8441,30.8441,0,0,0,16.2384-4.331s-3.941,8.3247-16.08,7.1867Z"/><path class="cls-12" d="M1008.0232,299.8026a3.0142,3.0142,0,0,1,2.6977-1.117,2.7506,2.7506,0,0,1,1.8967,1.0538,1.7386,1.7386,0,0,1,.137,1.9916,2.0337,2.0337,0,0,1-2.1918.5585,6.522,6.522,0,0,1-2.1075-1.275,1.76,1.76,0,0,1-.4742-.4953.5585.5585,0,0,1,0-.6217"/><path class="cls-6" d="M1012.2383,296.9258c-.274,0-.274,1.802-1.8335,3.0981s-3.488,1.0538-3.4985,1.3383.432.3582,1.2434.3793a4.5832,4.5832,0,0,0,2.9294-1.0538,3.9309,3.9309,0,0,0,1.4121-2.5922C1012.5649,297.3684,1012.3542,296.9258,1012.2383,296.9258Z"/><path class="cls-6" d="M1012.6282,280.4345c.1686.4531,1.8335.2424,3.804.4742s3.5512.7693,3.8041.3689c.1159-.2-.1581-.6218-.79-1.0538a6.681,6.681,0,0,0-5.8063-.6428C1012.9232,279.8655,1012.5544,280.2238,1012.6282,280.4345Z"/><path class="cls-6" d="M997.17,279.96c.2951.3794,1.4437,0,2.8347,0s2.5606.2635,2.824-.137c.1265-.2-.0632-.5795-.58-.9378a3.8876,3.8876,0,0,0-2.2972-.6217,3.93,3.93,0,0,0-2.2656.7692C997.2012,279.3913,997.0431,279.7812,997.17,279.96Z"/><path class="cls-11" d="M1032.4178,287.59a3.0557,3.0557,0,0,1,3.1612.1581,5.627,5.627,0,0,1-3.5406,10.4427"/><path class="cls-12" d="M1033.2713,294.576c0-.0843.4637.0948,1.0538-.1687a2.3328,2.3328,0,0,0-.2424-4.0464c-.6112-.2529-1.0538-.1264-1.0538-.2213s.411-.3793,1.2118-.2a2.1806,2.1806,0,0,1,1.18.7377,2.6972,2.6972,0,0,1,.6007,1.5911,2.4026,2.4026,0,0,1-1.5174,2.5291C1033.6507,295.04,1033.2081,294.6181,1033.2713,294.576Z"/><path class="cls-7" d="M1036.58,297.0312a4.6119,4.6119,0,0,1,.5585.39l1.4858,1.18,5.2688,4.4469.1792.1475-.1476.1792c-1.9494,2.3393-4.12,5.2688-6.5544,8.3247-.5585.6954-1.1064,1.37-1.6438,2.0021l-.4531.5269v-.6955c-.2108-4.9316-.39-9.3047-.4848-12.4449,0-1.4858-.0632-2.7292-.0842-3.6882a7.3749,7.3749,0,0,1,0-1.3488,6.1277,6.1277,0,0,1,.1686,1.3383c.0632.9589.1475,2.1918.2529,3.6882.19,3.1612.4215,7.4922.6638,12.4343l-.4742-.1686,1.6228-1.9811c2.4342-3.0559,4.626-5.9643,6.6282-8.2931v.3267l-5.1108-4.5944-1.412-1.2539A3.1584,3.1584,0,0,1,1036.58,297.0312Z"/><path class="cls-6" d="M1012.0592,257.1781a44.4612,44.4612,0,0,0-8.8411.9694,14.7518,14.7518,0,0,0-7.64,4.2994,8.9779,8.9779,0,0,0-2.1076,8.272,6.5018,6.5018,0,0,0,6.7125,4.6787c2.2339-.2951,4.3731-1.95,6.5333-1.2962s3.1613,3.1086,5.2688,3.4985,3.9094-1.4752,5.9959-1.6649c2.3183-.2,4.32,1.6965,5.3531,3.783s1.4225,4.4258,2.4552,6.5017a5.2692,5.2692,0,0,0,3.1613,2.9716,4.2994,4.2994,0,0,0,3.783-1.0538,8.8625,8.8625,0,0,0,2.2129-3.3931,18.8414,18.8414,0,0,0-15.3006-25.8171"/><path class="cls-8" d="M1041.6065,270.055c-.0948,0-.3793-.98-1.1169-2.4658a17.5982,17.5982,0,0,0-9.389-8.43c-1.5491-.59-2.5712-.7692-2.5607-.8641s.274,0,.7377,0a11.136,11.136,0,0,1,1.96.4532,16.0614,16.0614,0,0,1,9.6,8.6829,10.4445,10.4445,0,0,1,.6533,1.8968A2.1994,2.1994,0,0,1,1041.6065,270.055Z"/><path class="cls-7" d="M1050.88,252.2992a18.3407,18.3407,0,0,0-2.9189-.9063,11.5909,11.5909,0,0,0-7.1128,1.0538,15.6164,15.6164,0,0,0-5.49,4.7841c-1.1275,1.5279-1.6544,2.5922-1.7387,2.55a2.37,2.37,0,0,1,.295-.79,15.2579,15.2579,0,0,1,1.117-1.9811,14.6893,14.6893,0,0,1,5.5744-5.0475,11.19,11.19,0,0,1,7.3763-.9589,7.9969,7.9969,0,0,1,2.16.8008C1050.6373,252.0779,1050.9007,252.2359,1050.88,252.2992Z"/><path class="cls-7" d="M1039.2251,266.5354a7.7393,7.7393,0,0,1,0,2.4974,20.2089,20.2089,0,0,1-1.5175,5.8273,19.9347,19.9347,0,0,1-3.1612,5.1108,7.4523,7.4523,0,0,1-1.823,1.6965,31.7217,31.7217,0,0,0,4.5206-7.018A32.49,32.49,0,0,0,1039.2251,266.5354Z"/><path class="cls-7" d="M1039.5728,266.7989a2.1075,2.1075,0,0,1,.295.6955,11.1072,11.1072,0,0,1,.4742,1.9916,17.1234,17.1234,0,0,1-3.2455,12.8664,11.4284,11.4284,0,0,1-1.37,1.5279c-.3583.3372-.5585.5059-.59.4742s.6849-.8219,1.6439-2.2339a19.3043,19.3043,0,0,0,2.7081-6.0065,19.5454,19.5454,0,0,0,.4742-6.5754C1039.7836,267.8526,1039.478,266.82,1039.5728,266.7989Z"/></g><g id="freepik--speech-bubble--inject-2"><path class="cls-2" d="M1071.46,269.56a4.9632,4.9632,0,1,0,2.2656-.1686"/><path class="cls-2" d="M1085.7063,248.8534a5.7009,5.7009,0,1,0,2.6028-.19"/><path class="cls-4" d="M1116.1284,157.5979c-9.4838-.8009-19.1679,1.3277-25.7117,8.3036a32.3185,32.3185,0,0,0-8.2193,26.4915c-10.1372,4.215-15.6589,17.113-11.7284,27.3977s16.681,16.1225,27.0289,12.466a36.6709,36.6709,0,0,0,62.3509,9.9264c9.937,2.2445,21.0752,2.1075,29.5053-3.7514s12.1393-18.6937,5.7746-26.66c11.4543-2.7924,17.2711-17.092,13.8779-28.3882s-13.5724-19.3892-24.4261-23.9731c-7.1761-3.0348-16.133-4.6154-22.2554.2a28.3566,28.3566,0,0,0-46.144-1.9706"/><path class="cls-6" d="M1116.1284,157.5979s.19-.2529.58-.7377a25.6036,25.6036,0,0,1,1.8441-2.0337,28.64,28.64,0,0,1,8.8094-5.9116,29.2094,29.2094,0,0,1,7.44-2.1075,27.397,27.397,0,0,1,9.22.2845,29.0524,29.0524,0,0,1,9.8842,3.9832,28.6941,28.6941,0,0,1,8.546,8.43h-.274a15.3948,15.3948,0,0,1,9.02-3.0981,29.274,29.274,0,0,1,10.1582,1.6228,53.31,53.31,0,0,1,9.958,4.5628,46.8274,46.8274,0,0,1,9.22,6.9653,34.5936,34.5936,0,0,1,7.134,9.8,29.5052,29.5052,0,0,1,2.0232,5.9642,24.9838,24.9838,0,0,1,.432,6.4069,25.3736,25.3736,0,0,1-4.12,12.4238,19.8621,19.8621,0,0,1-4.6786,4.8789,18.2821,18.2821,0,0,1-6.2067,2.9716l.137-.4109a14.9829,14.9829,0,0,1,2.8346,6.0064,18.2392,18.2392,0,0,1,.1686,6.7651,22.2766,22.2766,0,0,1-6.3226,12.15,25.6588,25.6588,0,0,1-12.54,6.4068,42.3194,42.3194,0,0,1-14.4471.4321c-1.76-.2213-3.4985-.5691-5.2056-.9274l.274-.0948a36.6813,36.6813,0,0,1-51.63,5.0384q-.3482-.2863-.6891-.581a37.2182,37.2182,0,0,1-10.4744-14.4576l.3161.137a22.0338,22.0338,0,0,1-17.682-1.844,20.7383,20.7383,0,0,1-10.253-13.1615,22.2242,22.2242,0,0,1,2.1075-15.4586,21.4651,21.4651,0,0,1,10.4322-9.8l-.1053.2a32.3774,32.3774,0,0,1,8.3457-26.66,25.6172,25.6172,0,0,1,3.53-3.0664,25.9647,25.9647,0,0,1,7.26-3.6566,37.4408,37.4408,0,0,1,14.9739-1.4436h-.9905c-.6533,0-1.6228-.0738-2.9084-.0738a35.9755,35.9755,0,0,0-11.0328,1.7387,25.8066,25.8066,0,0,0-7.1867,3.6671,24.992,24.992,0,0,0-3.4774,3.0454,31.86,31.86,0,0,0-3.098,3.9305,32.8426,32.8426,0,0,0-4.4679,10.1055,32.2228,32.2228,0,0,0-.6112,12.3817v.137l-.137.0632a21.1593,21.1593,0,0,0-10.2109,9.6419,21.8443,21.8443,0,0,0-2.1075,15.1636,20.274,20.274,0,0,0,10.2214,12.8032,21.5811,21.5811,0,0,0,17.2922,1.7914l.2213-.0738.0948.2213a36.4278,36.4278,0,0,0,61.8977,9.8421l.1054-.1265h.1581c1.6965.3583,3.4142.7061,5.1634.9168a41.9181,41.9181,0,0,0,14.2469-.4215,25.0589,25.0589,0,0,0,12.2868-6.2593,21.6652,21.6652,0,0,0,6.1434-11.8443,15.8067,15.8067,0,0,0-2.8767-12.3606l-.2529-.3161.4-.1054a18.094,18.094,0,0,0,6.0275-2.8767,19.5709,19.5709,0,0,0,4.489-4.8052,24.7958,24.7958,0,0,0,4.0465-12.1709,24.0175,24.0175,0,0,0-.411-6.3225,28.5392,28.5392,0,0,0-1.9811-5.8484,34.13,34.13,0,0,0-7.018-9.6841,46.1153,46.1153,0,0,0-9.1255-6.9021,52.693,52.693,0,0,0-9.8526-4.5522,29.0733,29.0733,0,0,0-10.0108-1.6228,15.0057,15.0057,0,0,0-8.8094,2.9927l-.1581.1264-.1158-.1686a28.7157,28.7157,0,0,0-18.1563-12.2974,27.22,27.22,0,0,0-9.1255-.3266,29.5045,29.5045,0,0,0-16.2068,7.85c-.8536.843-1.4858,1.5174-1.8758,1.9916S1116.1284,157.5979,1116.1284,157.5979Z"/><path class="cls-7" d="M1181.3033,190.4435c0,.4531-18.6936.8219-41.7393.8219s-41.7289-.3688-41.7289-.8219,18.6832-.8219,41.7289-.8219S1181.3033,189.99,1181.3033,190.4435Z"/><path class="cls-7" d="M1181.3033,199.548c0,.4531-18.6936.8219-41.7393.8219s-41.7289-.3688-41.7289-.8219,18.6832-.8325,41.7289-.8325S1181.3033,199.0422,1181.3033,199.548Z"/><path class="cls-7" d="M1181.3033,208.5576c0,.4531-18.6936.822-41.7393.822s-41.7289-.3689-41.7289-.822,18.6832-.8219,41.7289-.8219S1181.3033,208.1045,1181.3033,208.5576Z"/><path class="cls-7" d="M1181.3033,217.6094c0,.4531-18.6936.8219-41.7393.8219s-41.7289-.3688-41.7289-.8219,18.6832-.8219,41.7289-.8219S1181.3033,217.1563,1181.3033,217.6094Z"/></g></svg>